<?xml version="1.0" encoding="UTF-8" standalone="no"?>
<svg
   xmlns:dc="http://purl.org/dc/elements/1.1/"
   xmlns:cc="http://creativecommons.org/ns#"
   xmlns:rdf="http://www.w3.org/1999/02/22-rdf-syntax-ns#"
   xmlns:svg="http://www.w3.org/2000/svg"
   xmlns="http://www.w3.org/2000/svg"
   xmlns:xlink="http://www.w3.org/1999/xlink"
   xmlns:sodipodi="http://sodipodi.sourceforge.net/DTD/sodipodi-0.dtd"
   xmlns:inkscape="http://www.inkscape.org/namespaces/inkscape"
   version="1.1"
   preserveAspectRatio="xMidYMid meet"
   viewBox="0 0 48 48"
   width="512"
   height="512"
   id="svg71"
   sodipodi:docname="renderbugle_icon.svg"
   inkscape:version="0.92.2 (5c3e80d, 2017-08-06)"
   inkscape:export-filename="D:\work\vorlon\ShaderEditorExtension\src\extension\renderbugle_icon_48.png"
   inkscape:export-xdpi="9"
   inkscape:export-ydpi="9">
  <metadata
     id="metadata75">
    <rdf:RDF>
      <cc:Work
         rdf:about="">
        <dc:format>image/svg+xml</dc:format>
        <dc:type
           rdf:resource="http://purl.org/dc/dcmitype/StillImage" />
        <dc:title />
      </cc:Work>
    </rdf:RDF>
  </metadata>
  <sodipodi:namedview
     pagecolor="#ffffff"
     bordercolor="#666666"
     borderopacity="1"
     objecttolerance="10"
     gridtolerance="10"
     guidetolerance="10"
     inkscape:pageopacity="0"
     inkscape:pageshadow="2"
     inkscape:window-width="971"
     inkscape:window-height="667"
     id="namedview73"
     showgrid="false"
     inkscape:pagecheckerboard="true"
     inkscape:zoom="0.36875"
     inkscape:cx="1088.1196"
     inkscape:cy="222.29506"
     inkscape:window-x="40"
     inkscape:window-y="132"
     inkscape:window-maximized="0"
     inkscape:current-layer="g67" />
  <defs
     id="defs13">
    <path
       d="M 247.37,265.29 C 146.63,265.27 64.94,213.71 64.94,150.1 c 0,-63.6 81.69,-115.16 182.43,-115.16 56.1,0 106.46,14.5 139.91,39.67 C 350.76,32.44 285.27,2.8 210.39,2.79 95.68,2.77 2.73,68.7 2.72,150.06 c 0,81.36 92.96,147.34 207.63,147.36 74.57,0.01 139.9,-29.53 176.52,-71.38 -33.46,25.01 -83.58,39.25 -139.5,39.25 z"
       id="h7JMJGS7GB"
       inkscape:connector-curvature="0" />
    <path
       d="m 213.96,100.03 c -0.62,-0.62 -1.46,-1.01 -2.38,-1.01 -0.89,0 -1.69,0.36 -2.31,0.94 0,0 0,0 0,0 -0.08,0.08 -0.13,0.12 -0.14,0.13 -0.01,0.01 -0.02,0.02 -0.03,0.03 -0.66,0.62 -5.96,5.6 -6.62,6.22 -0.05,0.05 -0.11,0.1 -0.16,0.15 0,0 0,0 -0.01,0.01 0,0 0,0 0,0 -0.61,0.68 -0.99,1.59 -0.99,2.61 0,1.33 0.66,2.49 1.64,3.15 7.81,8.52 12.64,20.17 12.64,32.99 0,26.04 -19.85,47.22 -44.26,47.22 -24.4,0 -44.25,-21.18 -44.25,-47.22 0,-12.95 4.92,-24.7 12.86,-33.24 0,-0.01 -0.07,-0.08 -0.07,-0.08 0.74,-0.69 1.22,-1.69 1.22,-2.82 0,-1.02 -0.38,-1.93 -0.99,-2.61 0,0 0,0 0,0 -0.01,-0.01 -0.01,-0.01 -0.01,-0.01 -0.05,-0.05 -0.11,-0.1 -0.16,-0.15 -0.66,-0.62 -5.96,-5.6 -6.62,-6.22 -0.01,-0.01 -0.02,-0.02 -0.03,-0.03 -0.01,-0.01 -0.05,-0.05 -0.14,-0.13 0,0 0,0 0,0 -0.62,-0.58 -1.42,-0.94 -2.31,-0.94 -1.3,0 -2.42,0.76 -3.03,1.88 -10.32,11.54 -16.68,27.15 -16.68,44.35 0,35.48 26.96,64.24 60.21,64.24 33.26,0 60.22,-28.76 60.22,-64.24 0,-17.67 -6.7,-33.68 -17.53,-45.29 0,0 -0.06,0.06 -0.07,0.07 z"
       id="adt5qX77m"
       inkscape:connector-curvature="0" />
    <path
       d="m 166.85,168.61 h 0.01 v 0 0 h 8.97 c 0,0 0,0 0,0 0,0 0,0 0,0 1.94,0 3.51,-1.67 3.51,-3.74 0,0 0,0 0,0 v 0 -77.01 c 0,0 0,0 0,0 0,0 0,-0.01 0,-0.01 0,-2.07 -1.57,-3.74 -3.51,-3.74 0,0 0,0 0,0 0,0 0,0 0,0 h -8.97 c 0,0 0,0 0,0 -1.94,0 -3.51,1.68 -3.51,3.74 0,0 0.01,0.01 0.01,0.01 0,0 -0.01,0 -0.01,0 v 77.01 0 c 0,0 0,0 0,0 0,2.07 1.57,3.74 3.5,3.74 0,0 0,0 0,0 z"
       id="c1rnJRjq2e"
       inkscape:connector-curvature="0" />
    <path
       d="m 357.41,94.15 0.07,-0.06 c -0.01,-0.01 -0.01,-0.01 -0.02,-0.01 0.79,-0.88 0.78,-2.24 -0.05,-3.09 0,0 0,0 0,0 l -3.07,-3.16 v 0 c 0,0 0,0 0,0 -0.83,-0.85 -2.15,-0.86 -3.01,-0.05 0,0 0,-0.01 -0.01,-0.02 -7.96,8.18 -12.38,12.72 -13.26,13.62 -0.85,0.88 -0.85,2.29 0,3.17 0,0 0,0 0,0 l 3.08,3.16 c 0,0 0,0 0,0 0.85,0.87 2.23,0.87 3.08,0 0.88,-0.9 5.28,-5.42 13.19,-13.56 z"
       id="j5RqMYgHt3"
       inkscape:connector-curvature="0" />
    <path
       d="m 309.79,94.71 h 4.35 c 0,0 0,0 0,0 1.18,0 2.12,-0.96 2.17,-2.15 0,0 0,0 0.01,0 0,-11.55 0,-17.97 0,-19.26 0,-1.23 -0.97,-2.23 -2.18,-2.23 0,0 0,0 0,-0.01 h -4.35 c 0,0 0,0 0,0.01 -1.2,0 -2.18,1 -2.18,2.23 0,1.29 0,7.71 0,19.26 0.01,0 0.01,0 0.01,0 0.05,1.19 1,2.15 2.17,2.15 0,0 0,0 0,0 z"
       id="c2waRdNpbi"
       inkscape:connector-curvature="0" />
    <path
       d="m 372.29,124.4 c 0,0 0,-0.01 0,-0.01 -11.25,0 -17.5,0 -18.76,0 -1.2,0 -2.17,1 -2.17,2.23 0,0 0,0 0,0 v 4.48 c 0,0 0,0 0,0 0,1.23 0.97,2.23 2.17,2.23 1.26,0 7.51,0 18.76,0 0,0 0,0 0,-0.01 1.16,-0.04 2.09,-1.02 2.09,-2.22 0,0 0,0 0,0 v -4.48 0 c -0.62,-1.45 -1.32,-2.19 -2.09,-2.22 z"
       id="exrVngnsr"
       inkscape:connector-curvature="0" />
    <path
       d="m 280.04,135.08 c 0,7.1 2.22,13.65 5.95,19.01 0,0 -0.01,0 -0.01,0 4.76,7.63 7.74,17.74 7.96,28.87 0.38,0.64 1.06,1.08 1.85,1.08 0.08,0 0.16,-0.02 0.25,-0.03 0,0.01 0,0.01 0,0.03 h 31.75 c 0,-0.02 0,-0.02 0,-0.03 0.08,0.01 0.16,0.03 0.24,0.03 0.86,0 1.6,-0.52 1.96,-1.27 0.26,-11.68 3.55,-22.22 8.76,-29.94 3.23,-5.12 5.14,-11.19 5.14,-17.75 0,-18.11 -14.29,-32.79 -31.92,-32.79 -17.64,0 -31.93,14.68 -31.93,32.79 z"
       id="b2ClTuuYzs"
       inkscape:connector-curvature="0" />
    <path
       d="m 327.79,203.34 c 0,0 0,-0.01 0,-0.03 h -31.75 c 0,0.02 0,0.03 0,0.03 -0.09,-0.01 -0.17,-0.03 -0.25,-0.03 -1.2,0 -2.18,1 -2.18,2.24 0,0.52 0,4.69 0,5.21 0,1.24 0.98,2.24 2.18,2.24 0.08,0 0.16,-0.02 0.25,-0.03 0,0.01 0,0.01 0,0.03 h 31.75 c 0,-0.02 0,-0.02 0,-0.02 0.08,0 0.16,0.02 0.24,0.02 1.2,0 2.18,-1 2.18,-2.24 0,-0.52 0,-4.69 0,-5.21 0,-1.24 -0.98,-2.24 -2.18,-2.24 -0.08,0 -0.16,0.02 -0.24,0.03 z"
       id="b4aO75gsOD"
       inkscape:connector-curvature="0" />
    <path
       d="m 327.79,188.8 c 0,0 0,-0.01 0,-0.03 h -31.75 c 0,0.02 0,0.03 0,0.03 -0.09,-0.01 -0.17,-0.03 -0.25,-0.03 -1.18,0 -2.13,0.97 -2.17,2.17 0,0.02 0,0.05 -0.01,0.08 0,0.52 0,4.68 0,5.2 0,1.24 0.98,2.24 2.18,2.24 0.08,0 0.16,-0.02 0.25,-0.03 0,0.01 0,0.01 0,0.03 h 31.75 c 0,-0.01 0,-0.02 0,-0.02 0.08,0 0.16,0.02 0.24,0.02 1.2,0 2.18,-1 2.18,-2.24 0,-0.52 0,-4.69 0,-5.21 0,-1.24 -0.98,-2.24 -2.18,-2.24 -0.08,0 -0.16,0.02 -0.24,0.03 z"
       id="g3fiYs8ruJ"
       inkscape:connector-curvature="0" />
    <path
       d="m 270.49,126.13 c -11.26,0 -17.51,0 -18.76,0 -1.2,0 -2.18,1.01 -2.18,2.24 0,0.45 0,4.03 0,4.47 0,1.24 0.98,2.24 2.18,2.24 1.25,0 7.5,0 18.76,0 0,-0.01 0,-0.01 0,-0.01 1.16,-0.05 2.09,-1.02 2.09,-2.23 0,0 0,0 0,0 v -4.47 c 0,0 0,0 0,0 0,-1.2 -0.93,-2.18 -2.09,-2.23 0,0 0,0 0,0 z"
       id="aAQ3J60OD"
       inkscape:connector-curvature="0" />
    <path
       d="m 280.53,107 c 0.01,0 0.01,-0.01 0.02,-0.01 0.85,0.81 2.17,0.8 3,-0.05 0,0 0,0 0,0 l 3.08,-3.16 c 0,0 0,0 0,0 0.83,-0.86 0.83,-2.21 0.05,-3.09 0,0 0,-0.01 0.01,-0.01 -7.96,-8.18 -12.38,-12.71 -13.26,-13.62 -0.85,-0.87 -2.23,-0.87 -3.08,0 0,0 0,0 0,0 v 0 l -3.08,3.16 c 0,0 0,0 0,0 -0.85,0.87 -0.85,2.29 0,3.16 0,0 0,0 0,0 z"
       id="c3jlrVyhN0"
       inkscape:connector-curvature="0" />
  </defs>
  <g
     id="g69"
     transform="matrix(1.2961782,0,0,1.2531184,0.54219178,45.738207)">
    <g
       id="g67">
      <use
         height="100%"
         width="100%"
         y="0"
         x="0"
         style="opacity:1;fill:#ae132a;fill-opacity:1"
         id="use15"
         xlink:href="#h7JMJGS7GB"
         transform="matrix(0.09084124,0,0,0.09108889,0.511474,-31.954371)" />
      <use
         height="100%"
         width="100%"
         y="0"
         x="0"
         style="opacity:1;fill:#a50000;fill-opacity:1"
         id="use19"
         xlink:href="#adt5qX77m"
         transform="matrix(0.09084124,0,0,0.09108889,0.511474,-31.954371)" />
      <use
         height="100%"
         width="100%"
         y="0"
         x="0"
         style="opacity:1;fill:#a50000;fill-opacity:1"
         id="use23"
         xlink:href="#c1rnJRjq2e"
         transform="matrix(0.09084124,0,0,0.09108889,0.511474,-31.954371)" />
      <use
         height="100%"
         width="100%"
         y="0"
         x="0"
         style="opacity:1;fill:#a50000;fill-opacity:1"
         id="use27"
         xlink:href="#j5RqMYgHt3"
         transform="matrix(0.09084124,0,0,0.09108889,0.511474,-31.954371)" />
      <use
         height="100%"
         width="100%"
         y="0"
         x="0"
         style="opacity:1;fill:#a50000;fill-opacity:1"
         id="use31"
         xlink:href="#c2waRdNpbi"
         transform="matrix(0.09084124,0,0,0.09108889,0.511474,-31.954371)" />
      <use
         height="100%"
         width="100%"
         y="0"
         x="0"
         style="opacity:1;fill:#a50000;fill-opacity:1"
         id="use35"
         xlink:href="#exrVngnsr"
         transform="matrix(0.09084124,0,0,0.09108889,0.511474,-31.954371)" />
      <use
         height="100%"
         width="100%"
         y="0"
         x="0"
         style="opacity:1;fill:#a50000;fill-opacity:1"
         id="use39"
         xlink:href="#b2ClTuuYzs"
         transform="matrix(0.09084124,0,0,0.09108889,0.511474,-31.954371)" />
      <use
         height="100%"
         width="100%"
         y="0"
         x="0"
         style="opacity:1;fill:#a50000;fill-opacity:1"
         id="use43"
         xlink:href="#b4aO75gsOD"
         transform="matrix(0.09084124,0,0,0.09108889,0.511474,-31.954371)" />
      <use
         xlink:href="#b4aO75gsOD"
         id="use45"
         style="opacity:1;fill-opacity:0;stroke:#000000;stroke-width:1;stroke-opacity:0"
         x="0"
         y="0"
         width="100%"
         height="100%"
         transform="matrix(0.09084124,0,0,0.09108889,0.511474,-31.954371)" />
      <use
         height="100%"
         width="100%"
         y="0"
         x="0"
         style="opacity:1;fill:#a50000;fill-opacity:1"
         id="use51"
         xlink:href="#g3fiYs8ruJ"
         transform="matrix(0.09084124,0,0,0.09108889,0.511474,-31.954371)" />
      <use
         xlink:href="#g3fiYs8ruJ"
         id="use53"
         style="opacity:1;fill-opacity:0;stroke:#000000;stroke-width:1;stroke-opacity:0"
         x="0"
         y="0"
         width="100%"
         height="100%"
         transform="matrix(0.09084124,0,0,0.09108889,0.511474,-31.954371)" />
      <use
         height="100%"
         width="100%"
         y="0"
         x="0"
         style="opacity:1;fill:#a50000;fill-opacity:1"
         id="use59"
         xlink:href="#aAQ3J60OD"
         transform="matrix(0.09084124,0,0,0.09108889,0.511474,-31.954371)" />
      <use
         height="100%"
         width="100%"
         y="0"
         x="0"
         style="opacity:1;fill:#a50000;fill-opacity:1"
         id="use63"
         xlink:href="#c3jlrVyhN0"
         transform="matrix(0.09084124,0,0,0.09108889,0.511474,-31.954371)" />
    </g>
  </g>
</svg>
